<?xml version="1.0" encoding="UTF-8" standalone="no"?>
<!-- Created with Inkscape (http://www.inkscape.org/) -->

<svg
   width="1000"
   height="1000"
   viewBox="0 0 264.58332 264.58334"
   version="1.1"
   id="svg5"
   xmlns="http://www.w3.org/2000/svg"
   xmlns:svg="http://www.w3.org/2000/svg"
   xmlns:rdf="http://www.w3.org/1999/02/22-rdf-syntax-ns#"
   xmlns:cc="http://creativecommons.org/ns#"
   xmlns:dc="http://purl.org/dc/elements/1.1/">
  <defs
     id="defs2" />
  <g
     id="layer2" />
  <g
     id="layer1">
    <g
       id="g6584"
       transform="translate(-169.78437,-483.5014)">
      <path
         style="fill:none;stroke:#0573e1;stroke-width:9.2604;stroke-linecap:butt;stroke-linejoin:miter;stroke-miterlimit:4;stroke-dasharray:none;stroke-opacity:1"
         d="m 269.81971,614.43156 20.9093,20.2956 43.66351,-40.88533"
         id="path5648" />
      <path
         style="fill:none;stroke:#4d4d4d;stroke-width:139.749;stroke-linecap:round;stroke-miterlimit:4;stroke-dasharray:none;stroke-opacity:1;paint-order:fill markers stroke"
         id="path5650"
         d="m -5818.4592,2747.8688 c -26.8002,26.8003 -345.1901,-10.9277 -378.9604,6.2791 -33.7703,17.2068 -190.3927,296.9657 -227.8273,302.8947 -37.4346,5.9291 -272.8415,-211.7384 -310.2762,-217.6675 -37.4346,-5.929 -328.5829,128.3403 -362.3531,111.1335 -33.7703,-17.2068 -96.2768,-331.6722 -123.077,-358.4725 -26.8003,-26.8002 -341.2657,-89.3067 -358.4725,-123.077 -17.2068,-33.7702 117.0625,-324.9185 111.1334,-362.3531 -5.929,-37.4346 -223.5965,-272.8416 -217.6674,-310.2762 5.929,-37.4346 285.6878,-194.057 302.8946,-227.8273 17.2069,-33.7702 -20.5211,-352.1602 6.2791,-378.9604 26.8003,-26.8003 345.1902,10.9277 378.9605,-6.2791 33.7702,-17.2068 190.3926,-296.96567 227.8273,-302.89474 37.4346,-5.92906 272.8415,211.73844 310.2761,217.66744 37.4347,5.9291 328.583,-128.34022 362.3532,-111.13341 33.7703,17.20681 96.2768,331.67221 123.077,358.47241 26.8002,26.8003 341.2657,89.3068 358.4725,123.077 17.2068,33.7703 -117.0625,324.9186 -111.1335,362.3532 5.9291,37.4346 223.5966,272.8416 217.6675,310.2762 -5.929,37.4346 -285.6879,194.057 -302.8947,227.8273 -17.2068,33.7702 20.5212,352.1602 -6.2791,378.9604 z"
         transform="matrix(0.05631247,0.00741368,-0.00741368,0.05631247,688.19981,553.84306)" />
    </g>
  </g>
  <metadata
     id="metadata856">
    <rdf:RDF>
      <cc:Work
         rdf:about="">
        <dc:creator>
          <cc:Agent>
            <dc:title>Inspire Studio</dc:title>
          </cc:Agent>
        </dc:creator>
        <cc:license
           rdf:resource="http://creativecommons.org/publicdomain/zero/1.0/" />
        <dc:description>Thank you for using this artwork. Feel free to visit our page https://www.pinterest.com.au/inspirestudiobox for more designs. We wish you have a wonderful day, everyday. Amitabha</dc:description>
      </cc:Work>
      <cc:License
         rdf:about="http://creativecommons.org/publicdomain/zero/1.0/">
        <cc:permits
           rdf:resource="http://creativecommons.org/ns#Reproduction" />
        <cc:permits
           rdf:resource="http://creativecommons.org/ns#Distribution" />
        <cc:permits
           rdf:resource="http://creativecommons.org/ns#DerivativeWorks" />
      </cc:License>
    </rdf:RDF>
  </metadata>
</svg>
